<?xml version="1.0" encoding="utf-8"?>
<!-- Generator: Adobe Illustrator 26.3.1, SVG Export Plug-In . SVG Version: 6.00 Build 0)  -->
<svg version="1.1" id="logo" xmlns="http://www.w3.org/2000/svg" xmlns:xlink="http://www.w3.org/1999/xlink" x="0px" y="0px" viewBox="0 0 1500 200" style="enable-background:new 0 0 1500 200;" xml:space="preserve">
<g>
	<path d="M114.92,129.38c0-3-1.8-5.4-3.6-7.2c-5.1-5.4-15-8.7-24.9-8.7c-31.2,0-55.8-18.6-55.8-42.6
		c0-24,24.6-42.9,55.8-42.9s55.5,18.9,55.5,42.9c0,7.5-6,13.5-13.5,13.5c-7.5,0-12.3-6.3-13.5-13.5c-1.2-7.8-12.3-15.9-28.5-15.9
		c-16.5,0-28.8,8.4-28.8,15.9s10.5,15.6,28.2,15.6s34.2,6.3,44.7,16.8c7.5,7.2,11.4,16.5,11.4,26.1c0,24-24.3,42.9-55.5,42.9
		c-17.7,0-33.9-6-44.4-16.8c-7.2-7.2-11.4-16.5-11.4-26.1c0-7.5,6-13.5,13.5-13.5s12.6,5.7,13.5,13.5c0.3,3,2.1,5.4,3.6,7.2
		c5.4,5.4,15,8.7,25.2,8.7C102.62,145.28,114.92,136.88,114.92,129.38z"/>
	<path d="M163.52,117.53v-77.4c0-7.2,6-13.5,13.5-13.5s13.5,6.3,13.5,13.5v77.4c0,16.2,13.2,29.1,29.4,29.1
		s29.4-12.9,29.4-29.1v-77.4c0-7.2,6-13.5,13.5-13.5c7.2,0,13.5,6.3,13.5,13.5v77.4c0,30.9-25.5,56.1-56.4,56.1
		C188.72,173.63,163.52,148.43,163.52,117.53z"/>
	<path d="M425.42,51.73l-85.2,84.9h75.6c7.5,0,13.5,6.3,13.5,13.8c0,7.2-6,13.2-13.5,13.2h-108c-0.9,0-1.8,0-2.7,0
		c-0.6-0.3-0.9-0.3-1.2-0.6c-0.6,0-0.9,0-1.5-0.3c-0.3-0.3-0.9-0.3-1.2-0.6c-0.3-0.3-0.6-0.3-0.9-0.6c-0.9-0.6-1.5-1.2-2.1-1.8
		c-0.6-0.6-1.2-1.2-1.8-2.1c-0.3-0.3-0.3-0.6-0.6-0.9c-0.3-0.6-0.3-0.9-0.6-1.2c-0.3-0.6-0.3-0.9-0.3-1.5c-0.3-0.3-0.3-0.6-0.6-1.2
		c-0.3-1.8-0.3-3.6,0-5.1c0.3-0.6,0.3-0.9,0.6-1.2c0-0.6,0-0.9,0.3-1.5c0.3-0.3,0.3-0.9,0.6-1.2c0.3-0.3,0.3-0.6,0.6-1.2
		c0.6-0.6,1.2-1.2,1.8-1.8l85.2-85.2h-75.6c-7.5,0-13.5-6-13.5-13.5s6-13.5,13.5-13.5h108c0.9,0,1.8,0,2.7,0.3c0.6,0,0.9,0,1.2,0.3
		c0.6,0,0.9,0.3,1.5,0.3c0.3,0.3,0.6,0.6,1.2,0.6c0.3,0.3,0.6,0.6,0.9,0.6c0.9,0.6,1.5,1.2,2.1,1.5c0,0.3,0,0.3,0,0.3h0.3
		c0.6,0.6,0.9,1.2,1.5,2.1c0.3,0.3,0.3,0.6,0.6,0.9c0.3,0.6,0.3,0.9,0.6,1.2c0.3,0.6,0.3,1.2,0.3,1.5c0.3,0.3,0.3,0.9,0.6,1.2
		c0.3,1.8,0.3,3.6,0,5.4c-0.3,0.3-0.3,0.6-0.6,0.9c0,0.6,0,0.9-0.3,1.5c-0.3,0.3-0.3,0.9-0.6,1.2c-0.3,0.3-0.3,0.6-0.6,1.2
		c-0.6,0.6-0.9,1.2-1.5,1.8C425.72,51.43,425.42,51.43,425.42,51.73z"/>
	<path d="M447.32,117.53v-77.4c0-7.2,6-13.5,13.5-13.5s13.5,6.3,13.5,13.5v77.4c0,16.2,13.2,29.1,29.4,29.1
		c16.2,0,29.4-12.9,29.4-29.1v-77.4c0-7.2,6-13.5,13.5-13.5c7.2,0,13.5,6.3,13.5,13.5v77.4c0,30.9-25.5,56.1-56.4,56.1
		C472.52,173.63,447.32,148.43,447.32,117.53z"/>
	<path class="st0" d="M584.72,160.13v-120c0-7.2,6-13.5,13.5-13.5c7.5,0,13.5,6.3,13.5,13.5v42.3l50.1-50.1c5.4-5.4,13.8-5.4,19.2,0
		c2.4,2.4,3.9,6,3.9,9.3c0,3.6-1.5,7.2-3.9,9.6c0,0-35.7,35.7-49.2,49.2c13.5,13.5,49.2,49.2,49.2,49.2c2.4,2.7,3.9,6.3,3.9,9.6
		c0,3.6-1.5,6.9-3.9,9.6c-5.4,5.4-13.8,5.4-19.2,0l-50.1-50.1v41.4c0,7.5-6,13.5-13.5,13.5
		C590.72,173.63,584.72,167.63,584.72,160.13z"/>
	<path d="M712.22,160.13v-120c0-7.2,6-13.5,13.5-13.5c7.2,0,13.5,6.3,13.5,13.5v120c0,7.5-6.3,13.5-13.5,13.5
		C718.22,173.63,712.22,167.63,712.22,160.13z"/>
	<path d="M770.77,159.98v-92.4c0-22.5,18.3-40.8,40.8-40.8c10.5,0,19.8,3.9,27,10.5c7.5-6.6,17.1-10.5,27.3-10.5
		c22.2,0,40.5,18.3,40.5,40.8v92.4c0,7.5-6,13.5-13.5,13.5s-13.5-6-13.5-13.5v-92.4c0-7.5-6-13.8-13.5-13.8c-3.6,0-7.2,1.5-9.6,3.9
		c-2.7,2.7-4.2,6-4.2,9.9v92.4c0,7.5-6,13.5-13.5,13.5s-13.5-6-13.5-13.5v-92.4c0-7.5-6-13.8-13.5-13.8s-13.8,6.3-13.8,13.8v92.4
		c0,7.5-6,13.5-13.5,13.5S770.77,167.48,770.77,159.98z"/>
	<path d="M939.97,150.83c-13.2-13.5-20.7-31.5-20.7-50.7c0-18.9,7.5-36.9,20.7-50.4c13.5-13.5,31.5-21,50.7-21
		s36.9,7.5,50.4,21c13.5,13.5,21,31.5,21,50.4c0,39.6-32.1,71.4-71.4,71.4C971.47,171.53,953.47,164.33,939.97,150.83z
		 M946.27,100.13c0,12,4.5,23.1,12.9,31.5s19.5,12.9,31.5,12.9c24.6,0,44.4-19.8,44.4-44.4c0-11.7-4.5-22.8-12.9-31.2
		c-8.4-8.4-19.5-13.2-31.5-13.2c-12,0-23.1,4.8-31.5,13.2C950.77,77.33,946.27,88.43,946.27,100.13z"/>
	<path d="M1110.37,53.63v33h70.5c7.5,0,13.5,6.3,13.5,13.5c0,7.5-6,13.5-13.5,13.5h-70.5v33h70.5
		c7.5,0,13.5,6.3,13.5,13.5c0,7.5-6,13.5-13.5,13.5h-84c-7.5,0-13.5-6-13.5-13.5v-120c0-7.2,6-13.5,13.5-13.5h84
		c7.5,0,13.5,6.3,13.5,13.5c0,7.5-6,13.5-13.5,13.5H1110.37z"/>
	<path d="M1220.77,160.13v-120c0-7.2,6-13.5,13.5-13.5s13.5,6.3,13.5,13.5v42.3l50.1-50.1c5.4-5.4,13.8-5.4,19.2,0
		c2.4,2.4,3.9,6,3.9,9.3c0,3.6-1.5,7.2-3.9,9.6c0,0-35.7,35.7-49.2,49.2c13.5,13.5,49.2,49.2,49.2,49.2c2.4,2.7,3.9,6.3,3.9,9.6
		c0,3.6-1.5,6.9-3.9,9.6c-5.4,5.4-13.8,5.4-19.2,0l-50.1-50.1v41.4c0,7.5-6,13.5-13.5,13.5S1220.77,167.63,1220.77,160.13z"/>
	<path d="M1343.17,155.23l50.1-120.6c2.1-5.1,7.2-8.4,12.6-8.4c5.4,0,10.5,3.3,12.6,8.4l49.8,120.9
		c3,6.9-0.3,14.7-7.2,17.4c-6.9,3-15-0.3-17.7-7.2c0,0-4.8-11.7-11.4-27.6h-52.2c-6.9,15.9-11.7,27.6-11.7,27.6
		c-2.7,6.9-10.8,10.2-17.4,7.2C1343.77,169.93,1340.47,162.13,1343.17,155.23z M1390.87,111.13h30c-5.4-12.6-10.8-25.5-15-36.3
		C1401.37,85.63,1395.97,98.53,1390.87,111.13z"/>
</g>
</svg>
